<svg viewBox="0 0 40 40" fill="none" xmlns="http://www.w3.org/2000/svg">
<path fill-rule="evenodd" clip-rule="evenodd" d="M0.0184523 4.75652C0.120359 4.24699 0.616028 3.91655 1.12556 4.01845L2.90426 4.37419C4.77088 4.74752 6.17491 6.29592 6.36432 8.19007L6.53859 9.93279H29.8484C32.9968 9.93279 35.307 12.8916 34.5434 15.9459L32.6403 23.5584C31.8753 26.6182 29.126 28.7648 25.972 28.7648H10.7287C8.53642 28.7648 6.68987 27.1266 6.42867 24.9499L4.75075 10.9673L4.49194 8.3773C4.38482 7.30614 3.59082 6.43049 2.53522 6.21937L0.756524 5.86363C0.246992 5.76172 -0.0834541 5.26606 0.0184523 4.75652ZM6.74764 11.8145L8.29698 24.7257C8.4447 25.9567 9.48895 26.8831 10.7287 26.8831H25.972C28.2626 26.8831 30.2592 25.3242 30.8147 23.102L32.7178 15.4896C33.1845 13.6228 31.7726 11.8145 29.8484 11.8145H6.74764Z" fill="#2B77EB"/>
<path fill-rule="evenodd" clip-rule="evenodd" d="M9.97766 20.4566C9.97766 19.9308 10.3914 19.5045 10.9017 19.5045H16.8159C17.3263 19.5045 17.74 19.9308 17.74 20.4566C17.74 20.9824 17.3263 21.4086 16.8159 21.4086H10.9017C10.3914 21.4086 9.97766 20.9824 9.97766 20.4566Z" fill="#2B77EB"/>
<circle cx="11.9588" cy="33.7566" r="2.54254" fill="#2B77EB"/>
<circle cx="27.214" cy="33.7566" r="2.54254" fill="#2B77EB"/>
</svg>
